<?xml version="1.0" standalone="no"?>
<!DOCTYPE svg PUBLIC "-//W3C//DTD SVG 20010904//EN"
 "http://www.w3.org/TR/2001/REC-SVG-20010904/DTD/svg10.dtd">
<svg version="1.0" xmlns="http://www.w3.org/2000/svg"
 width="1024.000000pt" height="1024.000000pt" viewBox="0 0 1024.000000 1024.000000"
 preserveAspectRatio="xMidYMid meet">
<metadata>
Created by potrace 1.14, written by Peter Selinger 2001-2017
</metadata>
<g transform="translate(0.000000,1024.000000) scale(0.100000,-0.100000)"
fill="#000000" stroke="none">
<path d="M4848 9754 c-2 -1 -46 -5 -98 -8 -52 -3 -106 -9 -120 -12 -14 -3 -41
-8 -60 -10 -19 -2 -59 -9 -90 -15 -30 -6 -62 -13 -70 -14 -8 -2 -16 -4 -17 -5
-5 -4 -6 -5 -157 -31 -32 -6 -66 -18 -75 -27 -25 -26 -71 -100 -71 -115 0 -18
-46 -69 -81 -91 -23 -15 -254 -99 -303 -111 -10 -2 -39 -14 -65 -27 -45 -22
-50 -24 -71 -27 -5 0 -21 -18 -34 -39 -13 -22 -30 -45 -38 -53 -7 -8 -30 -40
-51 -71 -21 -31 -50 -70 -65 -86 -15 -16 -34 -38 -42 -49 -27 -36 -52 -43 -88
-26 -18 9 -32 19 -32 24 0 5 -7 9 -16 9 -8 0 -13 4 -10 9 4 5 1 11 -5 13 -6 2
-13 15 -15 28 -1 14 -7 39 -12 55 -18 60 7 116 66 146 17 9 28 20 24 24 -13
14 96 -44 110 -59 22 -21 41 -5 32 29 -4 16 -20 35 -40 47 -19 11 -34 25 -34
30 0 6 -7 8 -15 4 -8 -3 -15 -1 -15 4 0 6 -12 10 -27 10 -14 0 -34 7 -44 16
-10 9 -35 18 -56 21 -21 3 -45 9 -53 13 -26 13 -88 3 -122 -21 -18 -13 -34
-27 -36 -31 -2 -4 -9 -8 -16 -8 -13 0 -43 -33 -125 -139 -27 -36 -48 -68 -45
-72 2 -4 0 -19 -6 -34 -7 -18 -7 -24 1 -20 6 4 9 1 7 -7 -4 -18 53 -158 64
-158 5 0 7 -4 4 -8 -8 -13 93 -122 113 -122 10 0 23 -10 30 -23 6 -12 27 -33
47 -46 19 -13 32 -26 29 -29 -3 -3 -33 -5 -67 -5 -60 0 -188 -25 -225 -46 -10
-5 -22 -9 -26 -9 -20 -1 -117 -64 -137 -89 -20 -26 -21 -35 -16 -153 2 -69 5
-140 5 -158 0 -18 4 -38 8 -45 16 -25 30 -77 23 -82 -11 -7 -110 17 -110 26 0
6 -38 24 -70 33 -34 11 -50 19 -50 26 0 4 -29 18 -65 31 -36 12 -65 25 -65 29
0 3 -8 6 -17 7 -10 1 -34 4 -52 6 -37 5 -136 -17 -158 -35 -7 -6 -13 -8 -13
-4 0 6 -87 -39 -151 -79 -59 -38 -192 -177 -219 -230 -13 -25 -27 -45 -32 -45
-4 0 -8 -7 -8 -15 0 -9 -9 -28 -19 -43 -31 -42 -64 -151 -67 -217 -1 -33 -3
-62 -4 -65 -6 -15 4 -69 16 -92 8 -16 12 -28 8 -28 -4 0 -1 -7 6 -15 18 -22
48 -75 61 -107 6 -16 15 -26 19 -23 4 3 21 -10 37 -28 44 -50 147 -117 180
-117 34 0 16 -24 -54 -71 -95 -64 -251 -218 -236 -233 4 -3 1 -6 -6 -6 -7 0
-10 -4 -7 -9 3 -4 -3 -19 -14 -31 -11 -13 -25 -42 -31 -64 -5 -23 -15 -55 -20
-73 -11 -34 -9 -233 2 -233 4 0 12 -13 18 -30 5 -16 7 -30 4 -30 -3 0 11 -20
31 -44 20 -24 36 -48 36 -54 0 -5 -18 -25 -40 -45 -54 -48 -132 -67 -178 -43
-56 29 -66 16 -36 -48 11 -22 32 -41 61 -56 40 -20 55 -21 169 -17 68 2 127 0
130 -5 3 -4 0 -8 -7 -8 -7 0 -9 -3 -6 -7 11 -10 -208 -107 -222 -99 -4 3 -22
8 -40 11 -19 3 -49 12 -68 20 -30 13 -40 13 -81 -1 -26 -9 -69 -28 -97 -42
-27 -14 -54 -25 -58 -24 -5 1 -6 -2 -3 -7 4 -5 -3 -12 -14 -16 -11 -3 -20 -11
-20 -16 0 -6 -5 -7 -10 -4 -6 3 -10 1 -10 -4 0 -6 -5 -11 -11 -11 -6 0 -33
-19 -60 -42 -46 -39 -99 -125 -99 -162 0 -8 -7 -42 -16 -76 -19 -73 -14 -254
8 -310 4 -8 9 -28 13 -45 4 -16 17 -44 31 -62 13 -17 24 -36 24 -41 0 -15 87
-95 128 -118 62 -34 162 -20 232 31 19 14 30 25 25 25 -5 0 0 7 12 15 21 15
38 59 28 75 -3 4 -18 -5 -34 -21 -39 -38 -86 -39 -144 -2 -81 53 -100 94 -103
218 -3 90 0 105 23 155 33 68 132 167 170 172 64 7 172 -11 225 -37 65 -33 62
-29 49 -52 -11 -20 -35 -77 -45 -107 -27 -80 -11 -178 45 -276 5 -8 13 -24 18
-35 13 -28 71 -100 82 -100 5 0 16 -11 25 -23 9 -13 30 -32 48 -43 17 -10 27
-19 21 -20 -75 -6 -234 -95 -285 -160 -14 -18 -32 -39 -41 -49 -8 -9 -13 -22
-11 -29 2 -7 -3 -20 -11 -29 -20 -23 -21 -142 -3 -211 15 -54 58 -129 83 -144
7 -4 13 -14 13 -21 0 -7 11 -22 25 -32 14 -10 25 -23 25 -29 0 -9 54 -47 117
-81 13 -7 37 -26 55 -43 18 -17 36 -31 39 -31 3 0 7 -21 7 -46 3 -65 -23 -104
-78 -119 -3 -1 -13 -5 -23 -10 -23 -10 -110 0 -139 17 -13 6 -30 13 -38 14
-17 3 -80 68 -80 83 0 6 -4 11 -8 11 -5 0 -14 18 -21 40 -11 36 -15 40 -41 38
-16 -1 -28 -6 -27 -11 1 -5 -7 -14 -17 -20 -11 -7 -32 -25 -47 -42 -24 -25
-28 -37 -25 -71 4 -42 45 -144 58 -144 4 0 26 -20 49 -45 23 -25 58 -55 78
-67 20 -12 42 -29 49 -38 11 -13 12 -13 6 0 -6 12 -4 12 12 -1 24 -21 74 -43
144 -65 30 -9 61 -22 69 -28 11 -8 13 -8 7 1 -5 9 -2 11 8 7 9 -3 14 -9 12
-13 -2 -3 14 -7 37 -9 51 -3 66 -16 63 -50 -2 -15 7 -43 19 -62 20 -32 36 -67
37 -80 0 -3 5 -18 12 -35 19 -45 19 -116 1 -159 -17 -41 -66 -96 -84 -96 -6 0
-11 -4 -11 -10 0 -14 -79 -12 -94 3 -7 6 -24 21 -39 31 -48 37 -42 132 14 195
14 16 23 36 21 50 -4 22 -6 23 -75 17 -40 -3 -75 -6 -78 -6 -3 0 -16 -9 -29
-20 -13 -12 -30 -18 -37 -16 -7 3 -13 1 -13 -4 0 -6 -6 -10 -14 -10 -8 0 -31
-10 -51 -21 -33 -20 -35 -24 -29 -58 4 -20 13 -45 20 -56 8 -11 14 -25 14 -33
0 -27 94 -158 137 -192 63 -48 102 -64 153 -61 48 2 73 1 78 -4 3 -2 -9 -20
-27 -40 -17 -20 -31 -32 -31 -28 0 4 -5 1 -10 -7 -5 -8 -80 -88 -167 -177
-194 -198 -246 -258 -255 -291 -6 -20 0 -40 22 -79 17 -29 30 -59 30 -68 0 -8
-22 -38 -50 -67 -27 -29 -50 -56 -50 -61 0 -4 -14 -23 -32 -43 -18 -19 -39
-44 -48 -55 -8 -12 -32 -42 -52 -67 -21 -26 -46 -58 -57 -72 -48 -61 -77 -96
-91 -112 -8 -9 -23 -27 -32 -40 -10 -13 -31 -41 -48 -62 -17 -22 -40 -55 -52
-75 -12 -20 -25 -38 -28 -41 -3 -3 -19 -32 -34 -65 -16 -33 -32 -67 -37 -75
-5 -8 -20 -37 -33 -63 -46 -87 -109 -192 -138 -228 -15 -20 -28 -40 -28 -44 0
-3 -13 -25 -28 -48 -52 -78 -55 -89 -43 -151 6 -31 17 -71 25 -89 22 -46 34
-107 34 -170 0 -30 2 -59 4 -63 4 -8 4 -22 0 -84 l-2 -25 -245 3 -245 3 0
-176 0 -175 5120 0 5120 0 0 175 0 175 -100 0 -100 0 3 176 c2 96 0 177 -4
180 -4 2 -4 17 1 33 4 16 6 32 3 35 -5 5 -7 65 -3 76 7 18 4 137 -3 148 -6 7
-6 12 -1 12 11 0 12 200 1 217 -4 6 -3 14 3 18 6 4 7 12 3 18 -13 21 -13 47 0
47 8 0 7 4 -3 10 -8 5 -10 10 -5 10 10 0 10 35 1 158 -2 34 -1 62 2 62 4 0 6
26 4 58 -3 64 -3 59 -3 127 0 28 0 57 0 65 0 8 2 34 3 57 2 22 0 39 -3 37 -5
-3 -4 63 4 235 2 44 -2 62 -22 90 -13 20 -32 42 -43 49 -10 7 -16 17 -14 21 5
8 -106 121 -118 121 -4 0 -32 25 -64 55 -52 51 -56 59 -55 98 1 23 9 56 17 72
9 17 12 31 7 33 -5 2 -7 12 -4 22 3 11 1 20 -5 20 -12 0 -18 30 -26 125 -3 39
-2 55 4 45 5 -8 10 -11 10 -7 0 17 -34 58 -64 76 -27 17 -51 20 -182 20 -223
2 -250 -14 -240 -140 5 -63 4 -74 -16 -102 -13 -18 -23 -36 -24 -42 -1 -16 26
-65 35 -65 5 0 11 -19 13 -42 4 -39 1 -46 -35 -81 -21 -20 -45 -37 -53 -37 -8
0 -13 -3 -13 -7 1 -5 1 -15 0 -23 -1 -13 -2 -13 -11 0 -5 8 -10 10 -10 4 0 -7
-7 -15 -16 -18 -11 -4 -33 10 -67 44 -29 27 -84 80 -122 118 -39 37 -90 93
-114 125 -25 32 -53 64 -62 71 -19 13 -89 100 -89 111 0 3 9 1 21 -6 52 -28
186 -12 228 27 16 15 23 62 10 70 -5 3 -9 1 -9 -5 0 -6 -16 -15 -36 -20 -39
-11 -104 7 -104 28 0 6 -6 11 -12 11 -7 0 -26 19 -42 42 -24 33 -30 52 -30 99
-1 31 2 60 5 63 3 4 19 1 35 -5 53 -22 133 -31 276 -33 53 -1 100 -4 103 -8
15 -15 14 -72 0 -116 -9 -24 -14 -46 -12 -48 2 -3 21 -6 43 -7 56 -5 67 11 70
105 3 64 0 87 -16 118 -11 22 -20 45 -20 52 0 19 -77 46 -148 52 -59 5 -122
30 -122 49 0 5 -7 15 -15 23 -20 21 -19 43 3 51 32 13 78 49 130 101 28 29 49
52 47 52 -2 0 7 12 22 28 14 15 39 54 55 86 26 52 29 67 25 115 -6 61 -8 73
-25 114 -7 16 -12 32 -12 36 0 4 -9 18 -20 31 -40 46 -16 106 58 144 18 9 32
13 32 9 0 -5 4 -3 8 3 4 6 31 15 60 21 40 8 56 7 70 -3 9 -7 25 -14 34 -14 10
0 32 -15 50 -32 17 -18 28 -27 23 -19 -6 10 -4 12 4 7 7 -5 10 -11 7 -14 -3
-3 1 -13 10 -23 12 -13 15 -28 10 -49 -3 -19 -2 -29 4 -25 19 12 10 -16 -15
-50 -30 -39 -65 -48 -111 -29 -42 18 -45 18 -42 -3 2 -10 18 -30 36 -46 29
-26 37 -29 78 -22 50 7 144 50 144 66 0 6 4 8 9 4 14 -8 25 14 29 60 1 22 7
56 12 75 25 103 5 235 -51 333 -27 46 -38 57 -59 57 -14 0 -32 -9 -40 -19 -7
-11 -17 -18 -20 -16 -4 2 -22 -4 -41 -14 -61 -32 -120 -44 -219 -42 l-75 1
-43 47 c-23 27 -54 68 -68 92 -28 47 -25 64 19 111 10 12 20 28 21 36 1 8 6
14 11 13 4 0 21 22 37 50 16 28 34 51 39 51 5 0 22 -8 36 -17 14 -10 38 -19
52 -21 14 -2 31 -8 37 -13 14 -11 96 -14 139 -4 17 4 35 8 40 9 56 13 131 72
188 147 34 46 77 159 59 159 -4 0 -8 15 -9 34 -1 19 -10 47 -19 63 -46 73
-187 182 -220 169 -8 -3 -14 -2 -14 3 0 11 -162 50 -228 55 -29 2 -55 5 -57 7
-2 2 23 22 56 44 32 22 59 46 59 52 0 7 4 13 10 13 5 0 12 11 16 25 3 14 15
32 26 39 24 17 38 76 31 124 -8 45 -47 115 -88 156 -34 34 -151 116 -166 116
-21 0 -5 25 49 78 31 31 68 72 82 90 14 19 31 40 38 48 7 7 12 16 12 19 -1 10
50 104 60 110 6 4 8 11 5 16 -3 5 0 23 8 41 17 38 40 177 33 199 -3 8 -7 39
-10 69 -8 86 -58 230 -79 230 -6 0 -8 3 -4 6 6 7 -23 44 -73 92 -51 50 -58 55
-139 100 -57 33 -81 41 -105 37 -28 -4 -129 -15 -181 -19 -11 0 -24 -4 -30 -7
-5 -3 -27 -7 -48 -7 -36 -1 -38 0 -33 26 2 15 10 43 17 62 8 21 13 80 14 145
0 124 -19 193 -61 215 -13 7 -21 16 -19 20 6 10 -66 14 -217 12 -76 -1 -138
-1 -138 1 0 1 11 34 25 72 13 39 25 82 25 97 0 14 5 49 12 77 10 45 9 56 -7
89 -10 20 -18 40 -17 43 2 10 -82 95 -118 119 -19 14 -41 30 -49 38 -7 7 -26
16 -41 19 -19 3 -27 10 -23 19 7 20 164 114 190 114 13 0 23 5 23 10 0 15 73
12 112 -4 35 -15 107 -86 110 -109 0 -6 2 -16 2 -22 1 -5 5 -15 9 -21 15 -24
26 -146 15 -172 -5 -15 -11 -39 -13 -54 -2 -16 -20 -61 -39 -102 -20 -41 -33
-81 -30 -89 6 -18 71 -8 109 17 14 9 25 14 25 11 0 -3 14 8 30 25 17 17 30 27
30 23 0 -4 6 1 13 11 7 9 19 16 27 14 8 -2 14 2 15 7 0 6 23 35 52 64 29 29
52 56 51 60 -2 19 3 31 12 26 6 -3 10 1 10 9 0 9 4 16 8 16 9 0 82 143 87 171
2 10 -1 34 -6 53 -5 20 -10 39 -10 43 0 5 -6 15 -14 23 -18 21 -67 110 -60
110 6 0 -21 26 -130 127 -31 29 -68 56 -83 59 -15 4 -31 9 -36 12 -22 13 -162
10 -188 -4 -14 -7 -48 -21 -75 -30 -26 -9 -82 -32 -123 -51 -95 -45 -125 -55
-177 -58 -24 -1 -43 -1 -43 0 0 1 12 35 26 75 32 92 40 159 22 182 -7 9 -51
37 -98 61 -109 57 -161 86 -180 101 -8 7 -33 21 -55 31 -22 10 -46 22 -54 28
-7 6 -20 12 -29 14 -9 1 -21 8 -27 15 -5 7 -32 28 -60 45 -27 18 -63 44 -79
58 -16 14 -37 25 -46 25 -9 0 -35 18 -58 40 -22 22 -45 40 -49 40 -4 0 -18 15
-31 34 -13 19 -51 60 -85 91 -34 32 -103 96 -153 144 -78 74 -136 126 -187
166 -6 6 -32 26 -57 46 -48 39 -117 79 -136 79 -6 0 -33 -9 -60 -19 -89 -35
-257 -82 -344 -95 -42 -7 -211 -7 -275 0 -56 5 -62 4 -84 -20 -14 -14 -28 -26
-32 -26 -5 0 -31 -22 -58 -50 -44 -44 -91 -66 -91 -42 0 4 -29 16 -65 25 -67
18 -98 14 -193 -24 -36 -14 -56 -11 -72 14 -8 12 -15 24 -16 27 -1 3 -5 14 -8
25 -4 11 -20 29 -37 40 -16 11 -29 28 -29 37 0 9 -5 20 -12 24 -7 4 -8 3 -4
-4 4 -7 3 -12 -3 -12 -5 0 -13 10 -16 23 -8 23 -53 77 -66 77 -5 0 -19 10 -33
23 -58 53 -114 84 -168 92 -54 8 -117 13 -120 9z m-2583 -2028 c65 -5 115 -24
95 -36 -8 -5 -18 -6 -22 -4 -4 3 -8 0 -8 -6 0 -6 -4 -9 -9 -6 -5 3 -11 0 -14
-7 -3 -8 -29 -25 -59 -39 -83 -40 -178 -144 -178 -196 0 -10 -3 -22 -7 -26 -5
-4 -8 -56 -8 -114 0 -91 -2 -107 -16 -110 -9 -2 -24 4 -33 13 -9 9 -16 13 -16
8 0 -14 -91 89 -101 114 -13 35 1 173 22 215 11 21 19 43 19 50 0 22 57 78
117 118 61 40 54 39 218 26z m6891 -2485 c18 -16 39 -33 46 -38 39 -24 52 -67
55 -173 2 -92 0 -110 -20 -149 -16 -30 -32 -47 -50 -52 -43 -12 -50 7 -38 108
5 48 9 97 7 108 -11 76 -21 113 -37 134 -10 13 -16 27 -14 32 3 4 -6 16 -20
25 -34 22 -32 34 6 34 20 0 43 -10 65 -29z"/>
</g>
</svg>
